<mxfile host="65bd71144e">
    <diagram id="qrjUGTcRZguuJfIz-kGi" name="Page-1">
        <mxGraphModel dx="1205" dy="684" grid="1" gridSize="10" guides="1" tooltips="1" connect="1" arrows="1" fold="1" page="1" pageScale="1" pageWidth="1654" pageHeight="2336" math="0" shadow="0">
            <root>
                <mxCell id="0"/>
                <mxCell id="1" parent="0"/>
                <mxCell id="9" value="Model" style="swimlane;whiteSpace=wrap;html=1;" vertex="1" parent="1">
                    <mxGeometry width="1460" height="850" as="geometry"/>
                </mxCell>
                <mxCell id="42" style="edgeStyle=none;html=1;endArrow=classic;endFill=1;" edge="1" parent="9" source="7" target="41">
                    <mxGeometry relative="1" as="geometry"/>
                </mxCell>
                <mxCell id="48" style="edgeStyle=none;html=1;endArrow=classic;endFill=1;dashed=1;" edge="1" parent="9" source="7" target="16">
                    <mxGeometry relative="1" as="geometry">
                        <mxPoint x="835" y="120" as="targetPoint"/>
                    </mxGeometry>
                </mxCell>
                <mxCell id="54" style="edgeStyle=none;html=1;endArrow=diamondThin;endFill=1;" edge="1" parent="9" source="7" target="35">
                    <mxGeometry relative="1" as="geometry"/>
                </mxCell>
                <mxCell id="58" style="edgeStyle=none;html=1;dashed=1;endArrow=classic;endFill=1;" edge="1" parent="9" source="7" target="12">
                    <mxGeometry relative="1" as="geometry"/>
                </mxCell>
                <mxCell id="75" style="edgeStyle=none;html=1;dashed=1;endArrow=block;endFill=1;" edge="1" parent="9" source="7" target="11">
                    <mxGeometry relative="1" as="geometry"/>
                </mxCell>
                <mxCell id="7" value="Board" style="rounded=0;whiteSpace=wrap;html=1;" vertex="1" parent="9">
                    <mxGeometry x="800" y="400" width="80" height="40" as="geometry"/>
                </mxCell>
                <mxCell id="45" style="edgeStyle=none;html=1;endArrow=classic;endFill=1;" edge="1" parent="9" source="10" target="44">
                    <mxGeometry relative="1" as="geometry"/>
                </mxCell>
                <mxCell id="49" style="edgeStyle=none;html=1;endArrow=diamondThin;endFill=0;" edge="1" parent="9" source="10" target="7">
                    <mxGeometry relative="1" as="geometry"/>
                </mxCell>
                <mxCell id="10" value="Square" style="rounded=0;whiteSpace=wrap;html=1;" vertex="1" parent="9">
                    <mxGeometry x="720" y="240" width="80" height="40" as="geometry"/>
                </mxCell>
                <mxCell id="14" style="edgeStyle=none;html=1;" edge="1" parent="9" source="11" target="10">
                    <mxGeometry relative="1" as="geometry"/>
                </mxCell>
                <mxCell id="17" value="coveredSquares" style="edgeStyle=none;html=1;endArrow=diamondThin;endFill=1;" edge="1" parent="9" source="16" target="18">
                    <mxGeometry relative="1" as="geometry">
                        <mxPoint x="795" y="100" as="sourcePoint"/>
                        <Array as="points">
                            <mxPoint x="420" y="100"/>
                        </Array>
                    </mxGeometry>
                </mxCell>
                <mxCell id="11" value="NumberSquare" style="rounded=0;whiteSpace=wrap;html=1;" vertex="1" parent="9">
                    <mxGeometry x="480" y="320" width="120" height="40" as="geometry"/>
                </mxCell>
                <mxCell id="13" style="edgeStyle=none;html=1;" edge="1" parent="9" source="12" target="10">
                    <mxGeometry relative="1" as="geometry"/>
                </mxCell>
                <mxCell id="12" value="SpecialSquare" style="rounded=0;whiteSpace=wrap;html=1;" vertex="1" parent="9">
                    <mxGeometry x="640" y="320" width="120" height="40" as="geometry"/>
                </mxCell>
                <mxCell id="16" value="Position" style="rounded=0;whiteSpace=wrap;html=1;" vertex="1" parent="9">
                    <mxGeometry x="800" y="80" width="80" height="40" as="geometry"/>
                </mxCell>
                <mxCell id="23" style="edgeStyle=none;html=1;endArrow=classic;endFill=1;" edge="1" parent="9" source="18" target="20">
                    <mxGeometry relative="1" as="geometry"/>
                </mxCell>
                <mxCell id="52" style="edgeStyle=none;html=1;endArrow=diamondThin;endFill=1;" edge="1" parent="9" source="18" target="11">
                    <mxGeometry relative="1" as="geometry"/>
                </mxCell>
                <mxCell id="18" value="NumberSquareType" style="rounded=0;whiteSpace=wrap;html=1;" vertex="1" parent="9">
                    <mxGeometry x="360" y="240" width="120" height="40" as="geometry"/>
                </mxCell>
                <mxCell id="24" style="edgeStyle=none;html=1;endArrow=classic;endFill=1;" edge="1" parent="9" source="19" target="20">
                    <mxGeometry relative="1" as="geometry"/>
                </mxCell>
                <mxCell id="53" style="edgeStyle=none;html=1;endArrow=diamondThin;endFill=1;" edge="1" parent="9" source="19" target="12">
                    <mxGeometry relative="1" as="geometry"/>
                </mxCell>
                <mxCell id="19" value="SpecialSquareType" style="rounded=0;whiteSpace=wrap;html=1;" vertex="1" parent="9">
                    <mxGeometry x="520" y="240" width="120" height="40" as="geometry"/>
                </mxCell>
                <mxCell id="51" style="edgeStyle=none;html=1;endArrow=diamondThin;endFill=1;" edge="1" parent="9" source="20" target="10">
                    <mxGeometry relative="1" as="geometry"/>
                </mxCell>
                <mxCell id="20" value="SquareType" style="rounded=0;whiteSpace=wrap;html=1;" vertex="1" parent="9">
                    <mxGeometry x="515" y="160" width="120" height="40" as="geometry"/>
                </mxCell>
                <mxCell id="55" style="edgeStyle=none;html=1;endArrow=diamondThin;endFill=1;" edge="1" parent="9" source="26" target="36">
                    <mxGeometry relative="1" as="geometry"/>
                </mxCell>
                <mxCell id="56" style="edgeStyle=none;html=1;endArrow=classic;endFill=1;" edge="1" parent="9" source="26" target="43">
                    <mxGeometry relative="1" as="geometry">
                        <mxPoint x="1415" y="200" as="targetPoint"/>
                    </mxGeometry>
                </mxCell>
                <mxCell id="26" value="Stats" style="rounded=0;whiteSpace=wrap;html=1;" vertex="1" parent="9">
                    <mxGeometry x="1340" y="400" width="80" height="40" as="geometry"/>
                </mxCell>
                <mxCell id="79" style="edgeStyle=none;html=1;endArrow=classic;endFill=1;" edge="1" parent="9" source="27" target="68">
                    <mxGeometry relative="1" as="geometry"/>
                </mxCell>
                <mxCell id="106" style="edgeStyle=none;html=1;fontSize=12;endArrow=classic;endFill=1;dashed=1;" edge="1" parent="9" source="27" target="16">
                    <mxGeometry relative="1" as="geometry">
                        <Array as="points">
                            <mxPoint x="1000" y="100"/>
                        </Array>
                    </mxGeometry>
                </mxCell>
                <mxCell id="27" value="Game" style="rounded=0;whiteSpace=wrap;html=1;" vertex="1" parent="9">
                    <mxGeometry x="960" y="800" width="80" height="40" as="geometry"/>
                </mxCell>
                <mxCell id="30" value="File Storage" style="swimlane;whiteSpace=wrap;html=1;" vertex="1" parent="9">
                    <mxGeometry x="1020" y="80" width="280" height="460" as="geometry">
                        <mxRectangle x="680" y="40" width="110" height="30" as="alternateBounds"/>
                    </mxGeometry>
                </mxCell>
                <mxCell id="31" value="FileInterface" style="rounded=0;whiteSpace=wrap;html=1;" vertex="1" parent="30">
                    <mxGeometry x="180" y="40" width="80" height="40" as="geometry"/>
                </mxCell>
                <mxCell id="34" style="edgeStyle=none;html=1;endArrow=classic;endFill=1;" edge="1" parent="30" source="32" target="31">
                    <mxGeometry relative="1" as="geometry"/>
                </mxCell>
                <mxCell id="32" value="FileInterface&amp;lt;T&amp;gt;" style="rounded=0;whiteSpace=wrap;html=1;" vertex="1" parent="30">
                    <mxGeometry x="20" y="40" width="120" height="40" as="geometry"/>
                </mxCell>
                <mxCell id="39" style="edgeStyle=none;html=1;endArrow=classic;endFill=1;" edge="1" parent="30" source="35" target="32">
                    <mxGeometry relative="1" as="geometry"/>
                </mxCell>
                <mxCell id="35" value="BoardInterface" style="rounded=0;whiteSpace=wrap;html=1;" vertex="1" parent="30">
                    <mxGeometry x="20" y="400" width="80" height="40" as="geometry"/>
                </mxCell>
                <mxCell id="36" value="StatsInterface" style="rounded=0;whiteSpace=wrap;html=1;" vertex="1" parent="30">
                    <mxGeometry x="180" y="400" width="80" height="40" as="geometry"/>
                </mxCell>
                <mxCell id="40" style="edgeStyle=none;html=1;endArrow=classic;endFill=1;" edge="1" parent="30" source="36" target="32">
                    <mxGeometry relative="1" as="geometry"/>
                </mxCell>
                <mxCell id="41" value="&lt;i&gt;IImmutableBoard&lt;/i&gt;" style="rounded=0;whiteSpace=wrap;html=1;" vertex="1" parent="9">
                    <mxGeometry x="860" y="160" width="120" height="40" as="geometry"/>
                </mxCell>
                <mxCell id="43" value="&lt;i&gt;IImmutableStats&lt;/i&gt;" style="rounded=0;whiteSpace=wrap;html=1;" vertex="1" parent="9">
                    <mxGeometry x="1320" y="160" width="120" height="40" as="geometry"/>
                </mxCell>
                <mxCell id="44" value="&lt;i&gt;IImmutableSquare&lt;/i&gt;" style="rounded=0;whiteSpace=wrap;html=1;" vertex="1" parent="9">
                    <mxGeometry x="700" y="160" width="120" height="40" as="geometry"/>
                </mxCell>
                <mxCell id="64" style="edgeStyle=none;html=1;endArrow=diamondThin;endFill=1;" edge="1" parent="9" source="35" target="27">
                    <mxGeometry relative="1" as="geometry"/>
                </mxCell>
                <mxCell id="66" style="edgeStyle=none;html=1;endArrow=diamondThin;endFill=1;" edge="1" parent="9" source="36" target="27">
                    <mxGeometry relative="1" as="geometry"/>
                </mxCell>
                <mxCell id="67" value="Listeners" style="swimlane;whiteSpace=wrap;html=1;" vertex="1" parent="9">
                    <mxGeometry x="80" y="120" width="240" height="680" as="geometry"/>
                </mxCell>
                <mxCell id="73" style="edgeStyle=none;html=1;endArrow=block;endFill=1;dashed=1;" edge="1" parent="67" source="68" target="69">
                    <mxGeometry relative="1" as="geometry"/>
                </mxCell>
                <mxCell id="74" style="edgeStyle=none;html=1;dashed=1;endArrow=block;endFill=1;" edge="1" parent="67" source="68" target="70">
                    <mxGeometry relative="1" as="geometry"/>
                </mxCell>
                <mxCell id="68" value="&lt;i&gt;IBoardUpdateListener&lt;/i&gt;" style="rounded=0;whiteSpace=wrap;html=1;" vertex="1" parent="67">
                    <mxGeometry x="100" y="200" width="120" height="40" as="geometry"/>
                </mxCell>
                <mxCell id="69" value="&lt;i&gt;IBoardUpdateEvent&lt;/i&gt;" style="rounded=0;whiteSpace=wrap;html=1;" vertex="1" parent="67">
                    <mxGeometry x="100" y="40" width="120" height="40" as="geometry"/>
                </mxCell>
                <mxCell id="72" style="edgeStyle=none;html=1;endArrow=block;endFill=1;" edge="1" parent="67" source="70" target="69">
                    <mxGeometry relative="1" as="geometry"/>
                </mxCell>
                <mxCell id="70" value="(Any board event)" style="rounded=0;whiteSpace=wrap;html=1;" vertex="1" parent="67">
                    <mxGeometry x="20" y="120" width="120" height="40" as="geometry"/>
                </mxCell>
                <mxCell id="80" value="&lt;i&gt;IUIUpdateEvent&lt;/i&gt;" style="rounded=0;whiteSpace=wrap;html=1;" vertex="1" parent="67">
                    <mxGeometry x="100" y="440" width="120" height="40" as="geometry"/>
                </mxCell>
                <mxCell id="84" style="edgeStyle=none;html=1;endArrow=classic;endFill=1;" edge="1" parent="67" source="81" target="80">
                    <mxGeometry relative="1" as="geometry"/>
                </mxCell>
                <mxCell id="81" value="(Any UI event)" style="rounded=0;whiteSpace=wrap;html=1;" vertex="1" parent="67">
                    <mxGeometry x="20" y="520" width="120" height="40" as="geometry"/>
                </mxCell>
                <mxCell id="83" style="edgeStyle=none;html=1;endArrow=classic;endFill=1;dashed=1;" edge="1" parent="67" source="82" target="80">
                    <mxGeometry relative="1" as="geometry"/>
                </mxCell>
                <mxCell id="85" style="edgeStyle=none;html=1;dashed=1;endArrow=classic;endFill=1;" edge="1" parent="67" source="82" target="81">
                    <mxGeometry relative="1" as="geometry"/>
                </mxCell>
                <mxCell id="82" value="&lt;i&gt;IUIEventReceiver&lt;/i&gt;" style="rounded=0;whiteSpace=wrap;html=1;" vertex="1" parent="67">
                    <mxGeometry x="100" y="600" width="120" height="40" as="geometry"/>
                </mxCell>
                <mxCell id="77" style="edgeStyle=none;html=1;endArrow=diamondThin;endFill=0;" edge="1" parent="9" source="68" target="7">
                    <mxGeometry relative="1" as="geometry"/>
                </mxCell>
                <mxCell id="86" style="edgeStyle=none;html=1;endArrow=diamondThin;endFill=0;" edge="1" parent="9" source="82" target="27">
                    <mxGeometry relative="1" as="geometry"/>
                </mxCell>
                <mxCell id="113" style="edgeStyle=none;html=1;dashed=1;fontSize=12;endArrow=classic;endFill=1;" edge="1" parent="9" source="36" target="43">
                    <mxGeometry relative="1" as="geometry"/>
                </mxCell>
                <mxCell id="114" style="edgeStyle=none;html=1;dashed=1;fontSize=12;endArrow=classic;endFill=1;" edge="1" parent="9" source="35" target="41">
                    <mxGeometry relative="1" as="geometry"/>
                </mxCell>
                <mxCell id="105" style="edgeStyle=none;html=1;fontSize=12;endArrow=diamond;endFill=1;" edge="1" parent="1" source="63" target="88">
                    <mxGeometry relative="1" as="geometry"/>
                </mxCell>
                <mxCell id="63" value="Scripts" style="swimlane;whiteSpace=wrap;html=1;" vertex="1" parent="1">
                    <mxGeometry y="880" width="1460" height="480" as="geometry">
                        <mxRectangle y="840" width="80" height="30" as="alternateBounds"/>
                    </mxGeometry>
                </mxCell>
                <mxCell id="92" value="GameOver" style="rounded=0;whiteSpace=wrap;html=1;fontSize=12;" vertex="1" parent="63">
                    <mxGeometry x="760" y="120" width="80" height="40" as="geometry"/>
                </mxCell>
                <mxCell id="94" value="Emits signals" style="edgeStyle=none;html=1;fontSize=12;endArrow=classic;endFill=1;dashed=1;" edge="1" parent="63" source="93" target="92">
                    <mxGeometry relative="1" as="geometry"/>
                </mxCell>
                <mxCell id="98" value="Emits signals" style="edgeStyle=none;html=1;dashed=1;fontSize=12;endArrow=classic;endFill=1;" edge="1" parent="63" source="93" target="97">
                    <mxGeometry relative="1" as="geometry"/>
                </mxCell>
                <mxCell id="102" value="Emits signals" style="edgeStyle=none;html=1;fontSize=12;endArrow=classic;endFill=1;dashed=1;" edge="1" parent="63" source="93" target="100">
                    <mxGeometry relative="1" as="geometry"/>
                </mxCell>
                <mxCell id="93" value="BoardScript" style="rounded=0;whiteSpace=wrap;html=1;fontSize=12;" vertex="1" parent="63">
                    <mxGeometry x="680" y="320" width="80" height="40" as="geometry"/>
                </mxCell>
                <mxCell id="96" style="edgeStyle=none;html=1;dashed=1;fontSize=12;endArrow=classic;endFill=1;" edge="1" parent="63" source="95" target="93">
                    <mxGeometry relative="1" as="geometry"/>
                </mxCell>
                <mxCell id="95" value="MainMenu" style="rounded=0;whiteSpace=wrap;html=1;fontSize=12;" vertex="1" parent="63">
                    <mxGeometry x="680" y="400" width="80" height="40" as="geometry"/>
                </mxCell>
                <mxCell id="97" value="PauseMenu" style="rounded=0;whiteSpace=wrap;html=1;fontSize=12;" vertex="1" parent="63">
                    <mxGeometry x="600" y="120" width="80" height="40" as="geometry"/>
                </mxCell>
                <mxCell id="101" style="edgeStyle=none;html=1;fontSize=12;endArrow=diamondThin;endFill=1;" edge="1" parent="63" source="99" target="100">
                    <mxGeometry relative="1" as="geometry"/>
                </mxCell>
                <mxCell id="99" value="SideBarAdvDetails" style="rounded=0;whiteSpace=wrap;html=1;fontSize=12;" vertex="1" parent="63">
                    <mxGeometry x="240" y="40" width="120" height="40" as="geometry"/>
                </mxCell>
                <mxCell id="100" value="SideBar" style="rounded=0;whiteSpace=wrap;html=1;fontSize=12;" vertex="1" parent="63">
                    <mxGeometry x="260" y="120" width="80" height="40" as="geometry"/>
                </mxCell>
                <mxCell id="88" value="&lt;b&gt;&lt;font style=&quot;font-size: 24px;&quot;&gt;GODOT&lt;/font&gt;&lt;/b&gt;" style="rounded=0;whiteSpace=wrap;html=1;" vertex="1" parent="1">
                    <mxGeometry x="640" y="1480" width="160" height="80" as="geometry"/>
                </mxCell>
                <mxCell id="90" style="edgeStyle=none;html=1;fontSize=12;endArrow=diamondThin;endFill=1;" edge="1" parent="1" source="27" target="93">
                    <mxGeometry relative="1" as="geometry"/>
                </mxCell>
                <mxCell id="91" style="edgeStyle=none;html=1;fontSize=12;endArrow=classic;endFill=1;" edge="1" parent="1" source="93" target="82">
                    <mxGeometry relative="1" as="geometry"/>
                </mxCell>
                <mxCell id="108" style="edgeStyle=none;html=1;dashed=1;fontSize=12;endArrow=classic;endFill=1;" edge="1" parent="1" source="93" target="16">
                    <mxGeometry relative="1" as="geometry">
                        <mxPoint x="930" y="270" as="targetPoint"/>
                        <Array as="points">
                            <mxPoint x="720" y="500"/>
                            <mxPoint x="1000" y="500"/>
                            <mxPoint x="1000" y="100"/>
                        </Array>
                    </mxGeometry>
                </mxCell>
                <mxCell id="109" style="edgeStyle=none;html=1;dashed=1;fontSize=12;endArrow=classic;endFill=1;" edge="1" parent="1" source="93" target="43">
                    <mxGeometry relative="1" as="geometry">
                        <mxPoint x="450" y="40" as="targetPoint"/>
                        <Array as="points">
                            <mxPoint x="40" y="1220"/>
                            <mxPoint x="40" y="60"/>
                            <mxPoint x="1380" y="60"/>
                        </Array>
                    </mxGeometry>
                </mxCell>
                <mxCell id="110" style="edgeStyle=none;html=1;dashed=1;fontSize=12;endArrow=classic;endFill=1;" edge="1" parent="1" source="93" target="41">
                    <mxGeometry relative="1" as="geometry">
                        <mxPoint x="490" y="70" as="targetPoint"/>
                        <Array as="points">
                            <mxPoint x="40" y="1220"/>
                            <mxPoint x="40" y="60"/>
                            <mxPoint x="920" y="60"/>
                        </Array>
                    </mxGeometry>
                </mxCell>
                <mxCell id="111" style="edgeStyle=none;html=1;dashed=1;fontSize=12;endArrow=classic;endFill=1;" edge="1" parent="1" source="93" target="44">
                    <mxGeometry relative="1" as="geometry">
                        <mxPoint x="550" y="80" as="targetPoint"/>
                        <Array as="points">
                            <mxPoint x="40" y="1220"/>
                            <mxPoint x="40" y="60"/>
                            <mxPoint x="760" y="60"/>
                        </Array>
                    </mxGeometry>
                </mxCell>
            </root>
        </mxGraphModel>
    </diagram>
</mxfile>